<svg width="21" height="21" viewBox="0 0 21 21" fill="none" xmlns="http://www.w3.org/2000/svg">
<path fill-rule="evenodd" clip-rule="evenodd" d="M19.5709 9.18516H5.22592L11.4989 2.90916C11.7443 2.67549 11.8831 2.35148 11.8831 2.01266C11.8831 1.67384 11.7443 1.34982 11.4989 1.11616C11.2653 0.870801 10.9412 0.731934 10.6024 0.731934C10.2636 0.731934 9.93959 0.870801 9.70592 1.11616L1.38292 9.44116C0.869756 10.0278 0.869756 10.9035 1.38292 11.4902L9.70792 19.8152C9.94158 20.0605 10.2656 20.1994 10.6044 20.1994C10.9432 20.1994 11.2673 20.0605 11.5009 19.8152H11.5009C11.7463 19.5815 11.8851 19.2575 11.8851 18.9187C11.8851 18.5798 11.7463 18.2558 11.5009 18.0222L5.22592 11.7472H19.5709C19.9167 11.7681 20.2548 11.6399 20.4997 11.395C20.7447 11.15 20.8729 10.8119 20.8519 10.4662C20.8729 10.1204 20.7447 9.78227 20.4997 9.53734C20.2548 9.29242 19.9167 9.1642 19.5709 9.18516Z" fill="#377DFF"/>
</svg>
